<?xml version="1.0" encoding="UTF-8"?>
<svg id="Layer_1" data-name="Layer 1" xmlns="http://www.w3.org/2000/svg" viewBox="0 0 3308.02 634.69">
  <defs>
    <style>
      .cls-1 {
        fill: #a0ff0b;
      }

      .cls-2 {
        fill: #050034;
      }

      .cls-3 {
        fill: #00008e;
      }

      .cls-4 {
        fill: #ff7f00;
      }
    </style>
  </defs>
  <g>
    <path class="cls-2" d="M875.6,620.92c-65.91,0-127.12-18.83-160.08-40.49l-13.18-115.82c46.14,32.96,110.17,56.5,168.55,56.5s98.87-23.54,98.87-80.04c0-120.53-256.12-48.02-256.12-269.31,0-93.22,66.86-165.73,190.21-165.73,63.09,0,118.64,18.83,145.01,33.9l-21.66,96.99c-23.54-14.12-70.62-32.96-115.82-32.96-52.73,0-83.8,24.48-83.8,61.21,0,118.64,260.83,51.79,260.83,272.13,0,111.11-73.45,183.62-212.81,183.62Z"/>
    <path class="cls-3" d="M875.6,624.42c-73.45,0-133.17-22.12-162-41.07l-1.37-.9-14.26-125.27,6.4,4.57c48.23,34.45,112.03,55.85,166.52,55.85,30.09,0,53.5-6.1,69.58-18.13,17.11-12.8,25.79-32.45,25.79-58.4,0-22.18-8.98-38.85-28.25-52.47-17.79-12.57-42.54-21.34-68.74-30.63-35.55-12.6-75.84-26.89-106.55-53.96-35.38-31.19-52.58-74.45-52.58-132.25,0-48.46,17.28-90.09,49.97-120.39,34.48-31.95,84.18-48.84,143.74-48.84s116.81,17.26,146.75,34.36l2.24,1.28-23.28,104.24-4.16-2.5c-20.09-12.06-66.72-32.46-114.02-32.46s-80.31,22.11-80.31,57.71c0,21.74,9.09,38.27,28.61,52.02,18.04,12.7,43.13,21.83,69.7,31.49,36.28,13.19,77.4,28.14,108.76,55.68,36.17,31.76,53.76,75.25,53.76,132.94s-19.13,103.71-55.31,136.08c-18.46,16.52-41.3,29.23-67.88,37.8-27.25,8.78-58.58,13.23-93.12,13.23ZM718.81,578.39c28.52,18.21,86.03,39.03,156.79,39.03,33.81,0,64.41-4.34,90.97-12.9,25.64-8.26,47.63-20.49,65.36-36.35,34.66-31.01,52.98-76.26,52.98-130.87s-16.8-97.32-51.37-127.68c-30.38-26.68-70.84-41.39-106.54-54.37-27.02-9.82-52.54-19.1-71.34-32.34-21.55-15.18-31.58-33.52-31.58-57.74,0-19.38,8.14-35.7,23.54-47.18,15.37-11.47,37.42-17.53,63.77-17.53,45.79,0,90.92,18.49,113.44,31.04l20.05-89.79c-29.68-16.22-83.95-32.18-141.03-32.18s-105.82,16.24-138.98,46.97c-31.22,28.94-47.73,68.79-47.73,115.25,0,124.84,82.06,153.94,154.47,179.61,26.67,9.46,51.86,18.39,70.44,31.51,21.3,15.04,31.22,33.53,31.22,58.18,0,28.28-9.62,49.81-28.59,64.01-17.32,12.96-42.14,19.53-73.78,19.53-53.49,0-115.69-20.07-164.2-52.72l12.12,106.51Z"/>
  </g>
  <g>
    <path class="cls-1" d="M875.6,618.38c-65.91,0-127.12-18.83-160.08-40.49l-13.18-115.82c46.14,32.96,110.17,56.5,168.55,56.5s98.87-23.54,98.87-80.04c0-120.53-256.12-48.02-256.12-269.31,0-93.22,66.86-165.73,190.21-165.73,63.09,0,118.64,18.83,145.01,33.9l-21.66,96.99c-23.54-14.12-70.62-32.96-115.82-32.96-52.73,0-83.8,24.48-83.8,61.21,0,118.64,260.83,51.79,260.83,272.13,0,111.11-73.45,183.62-212.81,183.62Z"/>
    <path class="cls-3" d="M875.6,621.88c-73.45,0-133.17-22.12-162-41.07l-1.37-.9-14.26-125.26,6.4,4.57c48.23,34.45,112.03,55.84,166.52,55.84,30.09,0,53.5-6.1,69.58-18.13,17.11-12.8,25.79-32.45,25.79-58.4,0-22.18-8.98-38.85-28.25-52.47-17.79-12.57-42.54-21.34-68.74-30.63-35.55-12.6-75.84-26.89-106.55-53.96-35.38-31.19-52.58-74.45-52.58-132.25,0-48.46,17.28-90.09,49.97-120.39C794.58,16.89,844.28,0,903.84,0s116.82,17.26,146.75,34.36l2.24,1.28-23.28,104.24-4.16-2.5c-20.09-12.06-66.72-32.46-114.02-32.46s-80.31,22.11-80.31,57.71c0,21.74,9.09,38.27,28.61,52.02,18.04,12.7,43.13,21.83,69.7,31.49,36.28,13.19,77.4,28.14,108.76,55.68,36.17,31.76,53.76,75.25,53.76,132.94s-19.13,103.71-55.31,136.08c-18.46,16.52-41.3,29.23-67.88,37.8-27.25,8.78-58.58,13.23-93.12,13.23ZM718.81,575.85c28.52,18.21,86.03,39.03,156.79,39.03,33.81,0,64.41-4.34,90.97-12.9,25.64-8.26,47.63-20.49,65.36-36.35,34.66-31.01,52.98-76.26,52.98-130.87s-16.8-97.32-51.37-127.68c-30.38-26.68-70.84-41.39-106.54-54.37-27.02-9.82-52.54-19.1-71.34-32.34-21.55-15.18-31.58-33.52-31.58-57.74,0-19.38,8.14-35.7,23.54-47.18,15.37-11.47,37.42-17.53,63.77-17.53,45.79,0,90.92,18.49,113.44,31.04l20.05-89.79c-29.68-16.22-83.95-32.18-141.03-32.18s-105.82,16.24-138.98,46.97c-31.22,28.93-47.73,68.79-47.73,115.25,0,124.84,82.06,153.94,154.47,179.61,26.67,9.46,51.86,18.39,70.44,31.51,21.3,15.04,31.22,33.53,31.22,58.18,0,28.28-9.62,49.81-28.59,64.01-17.32,12.96-42.14,19.53-73.78,19.53-53.49,0-115.69-20.07-164.2-52.72l12.12,106.51Z"/>
  </g>
  <path class="cls-3" d="M875.6,624.42c-73.45,0-133.17-22.12-162-41.07l-1.37-.9-14.26-125.27,6.4,4.57c48.23,34.45,112.03,55.85,166.52,55.85,30.09,0,53.5-6.1,69.58-18.13,17.11-12.8,25.79-32.45,25.79-58.4,0-22.18-8.98-38.85-28.25-52.47-17.79-12.57-42.54-21.34-68.74-30.63-35.55-12.6-75.84-26.89-106.55-53.96-35.38-31.19-52.58-74.45-52.58-132.25,0-48.46,17.28-90.09,49.97-120.39,34.48-31.95,84.18-48.84,143.74-48.84s116.81,17.26,146.75,34.36l2.24,1.28-23.28,104.24-4.16-2.5c-20.09-12.06-66.72-32.46-114.02-32.46s-80.31,22.11-80.31,57.71c0,21.74,9.09,38.27,28.61,52.02,18.04,12.7,43.13,21.83,69.7,31.49,36.28,13.19,77.4,28.14,108.76,55.68,36.17,31.76,53.76,75.25,53.76,132.94s-19.13,103.71-55.31,136.08c-18.46,16.52-41.3,29.23-67.88,37.8-27.25,8.78-58.58,13.23-93.12,13.23ZM718.81,578.39c28.52,18.21,86.03,39.03,156.79,39.03,33.81,0,64.41-4.34,90.97-12.9,25.64-8.26,47.63-20.49,65.36-36.35,34.66-31.01,52.98-76.26,52.98-130.87s-16.8-97.32-51.37-127.68c-30.38-26.68-70.84-41.39-106.54-54.37-27.02-9.82-52.54-19.1-71.34-32.34-21.55-15.18-31.58-33.52-31.58-57.74,0-19.38,8.14-35.7,23.54-47.18,15.37-11.47,37.42-17.53,63.77-17.53,45.79,0,90.92,18.49,113.44,31.04l20.05-89.79c-29.68-16.22-83.95-32.18-141.03-32.18s-105.82,16.24-138.98,46.97c-31.22,28.94-47.73,68.79-47.73,115.25,0,124.84,82.06,153.94,154.47,179.61,26.67,9.46,51.86,18.39,70.44,31.51,21.3,15.04,31.22,33.53,31.22,58.18,0,28.28-9.62,49.81-28.59,64.01-17.32,12.96-42.14,19.53-73.78,19.53-53.49,0-115.69-20.07-164.2-52.72l12.12,106.51Z"/>
  <g>
    <path class="cls-2" d="M1361.83,626.11c-115.69,0-207.57-82.52-207.57-203.32s91.88-204.17,207.57-204.17,206.72,82.52,206.72,204.17-91.02,203.32-206.72,203.32ZM1361.83,305.4c-57,0-106.34,45.94-106.34,117.4s49.34,117.4,106.34,117.4,106.34-46.79,106.34-117.4-49.34-117.4-106.34-117.4Z"/>
    <path class="cls-3" d="M1361.83,629.61c-57.73,0-110.86-20.36-149.59-57.33-39.65-37.84-61.48-90.93-61.48-149.49s21.83-112.27,61.48-150.23c38.69-37.04,91.81-57.44,149.59-57.44s110.7,20.4,149.17,57.44c39.37,37.9,61.05,91.25,61.05,150.22s-21.68,111.69-61.05,149.48c-38.51,36.97-91.49,57.33-149.17,57.33ZM1361.83,222.13c-55.97,0-107.37,19.71-144.75,55.49-38.25,36.62-59.32,88.18-59.32,145.17s21.07,107.91,59.32,144.42c37.42,35.72,88.83,55.39,144.75,55.39s107.12-19.67,144.32-55.38c37.98-36.46,58.9-87.75,58.9-144.43s-20.92-108.61-58.9-145.18c-37.16-35.78-88.41-55.49-144.32-55.49ZM1361.83,543.69c-29.34,0-56.71-11.83-77.08-33.31-21.12-22.28-32.76-53.38-32.76-87.58s11.63-65.75,32.76-87.91c20.27-21.27,47.65-32.99,77.08-32.99s56.8,11.71,77.08,32.99c21.13,22.17,32.76,53.39,32.76,87.91s-11.63,65.31-32.75,87.58c-20.37,21.48-47.74,33.31-77.08,33.31ZM1361.83,308.9c-27.5,0-53.07,10.94-72.01,30.82-19.88,20.86-30.83,50.36-30.83,83.08s10.95,61.8,30.83,82.77c19.03,20.07,44.6,31.13,72,31.13s52.97-11.05,72-31.13c19.88-20.97,30.83-50.36,30.83-82.77s-10.95-62.22-30.83-83.08c-18.94-19.87-44.51-30.82-72.01-30.82Z"/>
  </g>
  <g>
    <path class="cls-2" d="M1361.83,626.11c-115.69,0-207.57-82.52-207.57-203.32s91.88-204.17,207.57-204.17,206.72,82.52,206.72,204.17-91.02,203.32-206.72,203.32ZM1361.83,305.4c-57,0-106.34,45.94-106.34,117.4s49.34,117.4,106.34,117.4,106.34-46.79,106.34-117.4-49.34-117.4-106.34-117.4Z"/>
    <path class="cls-3" d="M1361.83,629.61c-57.73,0-110.86-20.36-149.59-57.33-39.65-37.84-61.48-90.93-61.48-149.49s21.83-112.27,61.48-150.23c38.69-37.04,91.81-57.44,149.59-57.44s110.7,20.4,149.17,57.44c39.37,37.9,61.05,91.25,61.05,150.22s-21.68,111.69-61.05,149.48c-38.51,36.97-91.49,57.33-149.17,57.33ZM1361.83,222.13c-55.97,0-107.37,19.71-144.75,55.49-38.25,36.62-59.32,88.18-59.32,145.17s21.07,107.91,59.32,144.42c37.42,35.72,88.83,55.39,144.75,55.39s107.12-19.67,144.32-55.38c37.98-36.46,58.9-87.75,58.9-144.43s-20.92-108.61-58.9-145.18c-37.16-35.78-88.41-55.49-144.32-55.49ZM1361.83,543.69c-29.34,0-56.71-11.83-77.08-33.31-21.12-22.28-32.76-53.38-32.76-87.58s11.63-65.75,32.76-87.91c20.27-21.27,47.65-32.99,77.08-32.99s56.8,11.71,77.08,32.99c21.13,22.17,32.76,53.39,32.76,87.91s-11.63,65.31-32.75,87.58c-20.37,21.48-47.74,33.31-77.08,33.31ZM1361.83,308.9c-27.5,0-53.07,10.94-72.01,30.82-19.88,20.86-30.83,50.36-30.83,83.08s10.95,61.8,30.83,82.77c19.03,20.07,44.6,31.13,72,31.13s52.97-11.05,72-31.13c19.88-20.97,30.83-50.36,30.83-82.77s-10.95-62.22-30.83-83.08c-18.94-19.87-44.51-30.82-72.01-30.82Z"/>
  </g>
  <g>
    <path class="cls-1" d="M1361.83,626.11c-115.69,0-207.57-82.52-207.57-203.32s91.88-204.17,207.57-204.17,206.72,82.52,206.72,204.17-91.02,203.32-206.72,203.32ZM1361.83,305.4c-57,0-106.34,45.94-106.34,117.4s49.34,117.4,106.34,117.4,106.34-46.79,106.34-117.4-49.34-117.4-106.34-117.4Z"/>
    <path class="cls-3" d="M1361.83,629.61c-57.73,0-110.86-20.36-149.59-57.33-39.65-37.84-61.48-90.93-61.48-149.49s21.83-112.27,61.48-150.23c38.69-37.04,91.81-57.44,149.59-57.44s110.7,20.4,149.17,57.44c39.37,37.9,61.05,91.25,61.05,150.22s-21.68,111.69-61.05,149.48c-38.51,36.97-91.49,57.33-149.17,57.33ZM1361.83,222.13c-55.97,0-107.37,19.71-144.75,55.49-38.25,36.62-59.32,88.18-59.32,145.17s21.07,107.91,59.32,144.42c37.42,35.72,88.83,55.39,144.75,55.39s107.12-19.67,144.32-55.38c37.98-36.46,58.9-87.75,58.9-144.43s-20.92-108.61-58.9-145.18c-37.16-35.78-88.41-55.49-144.32-55.49ZM1361.83,543.69c-29.34,0-56.71-11.83-77.08-33.31-21.12-22.28-32.76-53.38-32.76-87.58s11.63-65.75,32.76-87.91c20.27-21.27,47.65-32.99,77.08-32.99s56.8,11.71,77.08,32.99c21.13,22.17,32.76,53.39,32.76,87.91s-11.63,65.31-32.75,87.58c-20.37,21.48-47.74,33.31-77.08,33.31ZM1361.83,308.9c-27.5,0-53.07,10.94-72.01,30.82-19.88,20.86-30.83,50.36-30.83,83.08s10.95,61.8,30.83,82.77c19.03,20.07,44.6,31.13,72,31.13s52.97-11.05,72-31.13c19.88-20.97,30.83-50.36,30.83-82.77s-10.95-62.22-30.83-83.08c-18.94-19.87-44.51-30.82-72.01-30.82Z"/>
  </g>
  <g>
    <path class="cls-2" d="M1765.05,617.6c-81.67,0-124.2-58.7-124.2-133.56V9.35h100.38v467.03c0,32.33,15.31,52.74,43.39,56.15l-19.57,85.07Z"/>
    <path class="cls-3" d="M1767.84,621.1h-2.79c-39.75,0-72.72-13.8-95.37-39.91-21.15-24.39-32.33-57.98-32.33-97.15V5.85h107.38v470.53c0,30.82,14.31,49.52,40.31,52.67l3.86.47-21.06,91.58ZM1644.35,12.85v471.19c0,37.46,10.59,69.46,30.62,92.56,20.75,23.93,50.89,36.85,87.3,37.48l18.09-78.65c-27.16-4.94-42.63-26.25-42.63-59.04V12.85h-93.38Z"/>
  </g>
  <g>
    <path class="cls-2" d="M1765.05,617.6c-81.67,0-124.2-58.7-124.2-133.56V9.35h100.38v467.03c0,32.33,15.31,52.74,43.39,56.15l-19.57,85.07Z"/>
    <path class="cls-3" d="M1767.84,621.1h-2.79c-39.75,0-72.72-13.8-95.37-39.91-21.15-24.39-32.33-57.98-32.33-97.15V5.85h107.38v470.53c0,30.82,14.31,49.52,40.31,52.67l3.86.47-21.06,91.58ZM1644.35,12.85v471.19c0,37.46,10.59,69.46,30.62,92.56,20.75,23.93,50.89,36.85,87.3,37.48l18.09-78.65c-27.16-4.94-42.63-26.25-42.63-59.04V12.85h-93.38Z"/>
  </g>
  <g>
    <path class="cls-1" d="M1765.05,617.6c-81.67,0-124.2-58.7-124.2-133.56V9.35h100.38v467.03c0,32.33,15.31,52.74,43.39,56.15l-19.57,85.07Z"/>
    <path class="cls-3" d="M1767.84,621.1h-2.79c-39.75,0-72.72-13.8-95.37-39.91-21.15-24.39-32.33-57.98-32.33-97.15V5.85h107.38v470.53c0,30.82,14.31,49.52,40.31,52.67l3.86.47-21.06,91.58ZM1644.35,12.85v471.19c0,37.46,10.59,69.46,30.62,92.56,20.75,23.93,50.89,36.85,87.3,37.48l18.09-78.65c-27.16-4.94-42.63-26.25-42.63-59.04V12.85h-93.38Z"/>
  </g>
  <g>
    <path class="cls-2" d="M1829.7,504.46c0-74.01,58.7-117.4,128.45-124.2l85.07-7.66v-20.42c0-29.77-20.42-52.74-68.91-52.74-37.43,0-79.11,11.91-106.34,29.77l-18.72-76.56c33.18-22.12,85.07-34.03,135.26-34.03,91.02,0,153.98,47.64,153.98,139.51v109.74c0,38.28,18.72,74.86,45.94,91.87v7.66l-64.65,54.44c-20.42-8.51-39.13-26.37-50.19-51.89-21.27,34.88-61.25,56.15-112.29,56.15-78.26,0-127.6-55.3-127.6-121.65ZM1970.91,549.55c38.28,0,72.31-29.77,72.31-74.01v-31.48l-62.1,5.95c-41.68,3.4-59.55,28.07-59.55,53.59s19.57,45.94,49.34,45.94Z"/>
    <path class="cls-3" d="M1957.3,629.61c-38.38,0-71.44-12.78-95.63-36.97-22.88-22.88-35.48-54.2-35.48-88.18,0-35.84,13.57-66.93,39.23-89.91,23.25-20.82,56.05-34.23,92.38-37.78l81.91-7.37v-17.22c0-14.47-5.2-26.53-15.03-34.87-11.25-9.54-28.2-14.38-50.37-14.38-36.4,0-77.39,11.46-104.42,29.2l-4.14,2.72-20.47-83.76,2.04-1.36c32.51-21.67,83.8-34.62,137.2-34.62,46.78,0,85.99,12.5,113.41,36.15,28.83,24.87,44.07,61.82,44.07,106.86v109.74c0,36.62,17.8,72.35,44.29,88.91l1.65,1.03v11.22l-67.53,56.87-1.97-.82c-20.55-8.56-38.26-25.85-49.34-47.93-23.12,33.42-63.47,52.45-111.79,52.45ZM1974.32,295.94c23.88,0,42.35,5.4,54.9,16.04,11.45,9.71,17.51,23.61,17.51,40.21v23.62l-88.26,7.94c-34.83,3.4-66.22,16.19-88.36,36.02-24.14,21.62-36.9,50.91-36.9,84.7s11.87,61.68,33.43,83.23c22.84,22.84,54.2,34.92,90.68,34.92,48.36,0,88.2-19.85,109.3-54.47l3.52-5.76,2.68,6.2c9.74,22.47,26.56,40.29,46.38,49.21l61.75-52v-4.12c-27.55-18.21-45.94-55.6-45.94-93.78v-109.74c0-42.94-14.4-78.06-41.64-101.56-26.13-22.54-63.76-34.45-108.84-34.45-50.95,0-99.77,11.97-131.27,32.1l16.97,69.44c28.02-16.93,68.24-27.72,104.09-27.72ZM1970.91,553.05c-30.12,0-52.84-21.25-52.84-49.44,0-14.34,5.38-27.67,15.15-37.55,11.01-11.13,27.48-17.89,47.61-19.53l65.89-6.32v35.33c0,21.79-8.12,41.71-22.85,56.1-14.15,13.81-32.95,21.41-52.96,21.41ZM2039.72,447.91l-58.27,5.59c-27.28,2.23-56.38,16.56-56.38,50.11,0,24.19,19.71,42.44,45.84,42.44,18.16,0,35.23-6.9,48.07-19.42,13.38-13.06,20.74-31.2,20.74-51.09v-27.62Z"/>
  </g>
  <g>
    <path class="cls-2" d="M1829.7,504.46c0-74.01,58.7-117.4,128.45-124.2l85.07-7.66v-20.42c0-29.77-20.42-52.74-68.91-52.74-37.43,0-79.11,11.91-106.34,29.77l-18.72-76.56c33.18-22.12,85.07-34.03,135.26-34.03,91.02,0,153.98,47.64,153.98,139.51v109.74c0,38.28,18.72,74.86,45.94,91.87v7.66l-64.65,54.44c-20.42-8.51-39.13-26.37-50.19-51.89-21.27,34.88-61.25,56.15-112.29,56.15-78.26,0-127.6-55.3-127.6-121.65ZM1970.91,549.55c38.28,0,72.31-29.77,72.31-74.01v-31.48l-62.1,5.95c-41.68,3.4-59.55,28.07-59.55,53.59s19.57,45.94,49.34,45.94Z"/>
    <path class="cls-3" d="M1957.3,629.61c-38.38,0-71.44-12.78-95.63-36.97-22.88-22.88-35.48-54.2-35.48-88.18,0-35.84,13.57-66.93,39.23-89.91,23.25-20.82,56.05-34.23,92.38-37.78l81.91-7.37v-17.22c0-14.47-5.2-26.53-15.03-34.87-11.25-9.54-28.2-14.38-50.37-14.38-36.4,0-77.39,11.46-104.42,29.2l-4.14,2.72-20.47-83.76,2.04-1.36c32.51-21.67,83.8-34.62,137.2-34.62,46.78,0,85.99,12.5,113.41,36.15,28.83,24.87,44.07,61.82,44.07,106.86v109.74c0,36.62,17.8,72.35,44.29,88.91l1.65,1.03v11.22l-67.53,56.87-1.97-.82c-20.55-8.56-38.26-25.85-49.34-47.93-23.12,33.42-63.47,52.45-111.79,52.45ZM1974.32,295.94c23.88,0,42.35,5.4,54.9,16.04,11.45,9.71,17.51,23.61,17.51,40.21v23.62l-88.26,7.94c-34.83,3.4-66.22,16.19-88.36,36.02-24.14,21.62-36.9,50.91-36.9,84.7s11.87,61.68,33.43,83.23c22.84,22.84,54.2,34.92,90.68,34.92,48.36,0,88.2-19.85,109.3-54.47l3.52-5.76,2.68,6.2c9.74,22.47,26.56,40.29,46.38,49.21l61.75-52v-4.12c-27.55-18.21-45.94-55.6-45.94-93.78v-109.74c0-42.94-14.4-78.06-41.64-101.56-26.13-22.54-63.76-34.45-108.84-34.45-50.95,0-99.77,11.97-131.27,32.1l16.97,69.44c28.02-16.93,68.24-27.72,104.09-27.72ZM1970.91,553.05c-30.12,0-52.84-21.25-52.84-49.44,0-14.34,5.38-27.67,15.15-37.55,11.01-11.13,27.48-17.89,47.61-19.53l65.89-6.32v35.33c0,21.79-8.12,41.71-22.85,56.1-14.15,13.81-32.95,21.41-52.96,21.41ZM2039.72,447.91l-58.27,5.59c-27.28,2.23-56.38,16.56-56.38,50.11,0,24.19,19.71,42.44,45.84,42.44,18.16,0,35.23-6.9,48.07-19.42,13.38-13.06,20.74-31.2,20.74-51.09v-27.62Z"/>
  </g>
  <g>
    <path class="cls-1" d="M1829.7,504.46c0-74.01,58.7-117.4,128.45-124.2l85.07-7.66v-20.42c0-29.77-20.42-52.74-68.91-52.74-37.43,0-79.11,11.91-106.34,29.77l-18.72-76.56c33.18-22.12,85.07-34.03,135.26-34.03,91.02,0,153.98,47.64,153.98,139.51v109.74c0,38.28,18.72,74.86,45.94,91.87v7.66l-64.65,54.44c-20.42-8.51-39.13-26.37-50.19-51.89-21.27,34.88-61.25,56.15-112.29,56.15-78.26,0-127.6-55.3-127.6-121.65ZM1970.91,549.55c38.28,0,72.31-29.77,72.31-74.01v-31.48l-62.1,5.95c-41.68,3.4-59.55,28.07-59.55,53.59s19.57,45.94,49.34,45.94Z"/>
    <path class="cls-3" d="M1957.3,629.61c-38.38,0-71.44-12.78-95.63-36.97-22.88-22.88-35.48-54.2-35.48-88.18,0-35.84,13.57-66.93,39.23-89.91,23.25-20.82,56.05-34.23,92.38-37.78l81.91-7.37v-17.22c0-14.47-5.2-26.53-15.03-34.87-11.25-9.54-28.2-14.38-50.37-14.38-36.4,0-77.39,11.46-104.42,29.2l-4.14,2.72-20.47-83.76,2.04-1.36c32.51-21.67,83.8-34.62,137.2-34.62,46.78,0,85.99,12.5,113.41,36.15,28.83,24.87,44.07,61.82,44.07,106.86v109.74c0,36.62,17.8,72.35,44.29,88.91l1.65,1.03v11.22l-67.53,56.87-1.97-.82c-20.55-8.56-38.26-25.85-49.34-47.93-23.12,33.42-63.47,52.45-111.79,52.45ZM1974.32,295.94c23.88,0,42.35,5.4,54.9,16.04,11.45,9.71,17.51,23.61,17.51,40.21v23.62l-88.26,7.94c-34.83,3.4-66.22,16.19-88.36,36.02-24.14,21.62-36.9,50.91-36.9,84.7s11.87,61.68,33.43,83.23c22.84,22.84,54.2,34.92,90.68,34.92,48.36,0,88.2-19.85,109.3-54.47l3.52-5.76,2.68,6.2c9.74,22.47,26.56,40.29,46.38,49.21l61.75-52v-4.12c-27.55-18.21-45.94-55.6-45.94-93.78v-109.74c0-42.94-14.4-78.06-41.64-101.56-26.13-22.54-63.76-34.45-108.84-34.45-50.95,0-99.77,11.97-131.27,32.1l16.97,69.44c28.02-16.93,68.24-27.72,104.09-27.72ZM1970.91,553.05c-30.12,0-52.84-21.25-52.84-49.44,0-14.34,5.38-27.67,15.15-37.55,11.01-11.13,27.48-17.89,47.61-19.53l65.89-6.32v35.33c0,21.79-8.12,41.71-22.85,56.1-14.15,13.81-32.95,21.41-52.96,21.41ZM2039.72,447.91l-58.27,5.59c-27.28,2.23-56.38,16.56-56.38,50.11,0,24.19,19.71,42.44,45.84,42.44,18.16,0,35.23-6.9,48.07-19.42,13.38-13.06,20.74-31.2,20.74-51.09v-27.62Z"/>
  </g>
  <g>
    <path class="cls-2" d="M2451.55,336.02c-6.8-2.55-20.42-5.95-32.33-5.95-45.09,0-90.17,22.97-90.17,97.83v187.15h-100.38V229.68h100.38v82.52c13.61-57.85,57.85-88.47,110.59-88.47,11.91,0,28.07,2.55,37.43,5.1l-25.52,107.19Z"/>
    <path class="cls-3" d="M2332.55,618.55h-107.38V226.18h107.38v63.75c7.88-18.89,19.75-34.71,34.99-46.43,19.79-15.22,44.72-23.27,72.1-23.27,12.46,0,29.06,2.69,38.35,5.23l3.27.89-27.22,114.34-3.71-1.39c-6.14-2.3-19.5-5.73-31.1-5.73-17.03,0-41.2,3.46-59.66,19.95-17.92,16.01-27.01,41.03-27.01,74.38v190.65ZM2232.17,611.55h93.38v-183.65c0-35.43,9.87-62.21,29.35-79.6,15.92-14.22,38.16-21.73,64.33-21.73,10.06,0,21.7,2.35,29.81,4.9l23.83-100.08c-9.12-2.14-22.73-4.15-33.22-4.15-25.82,0-49.28,7.54-67.84,21.82-19.41,14.93-33.02,37.05-39.35,63.96l-6.91,29.36v-109.18h-93.38v378.37Z"/>
  </g>
  <g>
    <path class="cls-2" d="M2451.55,336.02c-6.8-2.55-20.42-5.95-32.33-5.95-45.09,0-90.17,22.97-90.17,97.83v187.15h-100.38V229.68h100.38v82.52c13.61-57.85,57.85-88.47,110.59-88.47,11.91,0,28.07,2.55,37.43,5.1l-25.52,107.19Z"/>
    <path class="cls-3" d="M2332.55,618.55h-107.38V226.18h107.38v63.75c7.88-18.89,19.75-34.71,34.99-46.43,19.79-15.22,44.72-23.27,72.1-23.27,12.46,0,29.06,2.69,38.35,5.23l3.27.89-27.22,114.34-3.71-1.39c-6.14-2.3-19.5-5.73-31.1-5.73-17.03,0-41.2,3.46-59.66,19.95-17.92,16.01-27.01,41.03-27.01,74.38v190.65ZM2232.17,611.55h93.38v-183.65c0-35.43,9.87-62.21,29.35-79.6,15.92-14.22,38.16-21.73,64.33-21.73,10.06,0,21.7,2.35,29.81,4.9l23.83-100.08c-9.12-2.14-22.73-4.15-33.22-4.15-25.82,0-49.28,7.54-67.84,21.82-19.41,14.93-33.02,37.05-39.35,63.96l-6.91,29.36v-109.18h-93.38v378.37Z"/>
  </g>
  <g>
    <path class="cls-1" d="M2451.55,336.02c-6.8-2.55-20.42-5.95-32.33-5.95-45.09,0-90.17,22.97-90.17,97.83v187.15h-100.38V229.68h100.38v82.52c13.61-57.85,57.85-88.47,110.59-88.47,11.91,0,28.07,2.55,37.43,5.1l-25.52,107.19Z"/>
    <path class="cls-3" d="M2332.55,618.55h-107.38V226.18h107.38v63.75c7.88-18.89,19.75-34.71,34.99-46.43,19.79-15.22,44.72-23.27,72.1-23.27,12.46,0,29.06,2.69,38.35,5.23l3.27.89-27.22,114.34-3.71-1.39c-6.14-2.3-19.5-5.73-31.1-5.73-17.03,0-41.2,3.46-59.66,19.95-17.92,16.01-27.01,41.03-27.01,74.38v190.65ZM2232.17,611.55h93.38v-183.65c0-35.43,9.87-62.21,29.35-79.6,15.92-14.22,38.16-21.73,64.33-21.73,10.06,0,21.7,2.35,29.81,4.9l23.83-100.08c-9.12-2.14-22.73-4.15-33.22-4.15-25.82,0-49.28,7.54-67.84,21.82-19.41,14.93-33.02,37.05-39.35,63.96l-6.91,29.36v-109.18h-93.38v378.37Z"/>
  </g>
  <path class="cls-2" d="M2808.91,110.33c-15.31-5.96-34.03-10.21-49.34-10.21-53.59,0-80.82,34.03-80.82,94.43v40.83h115.69l-19.57,85.07h-96.13v300.29h-101.23v-300.29h-62.1v-85.07h62.1v-49.34c0-113.14,68.91-170.99,171.84-170.99,32.33,0,58.7,5.1,79.11,12.76l-19.57,82.52ZM2900.78,197.1c-17.87,0-56.15-37.43-56.15-56.15s38.28-56.15,56.15-56.15c19.57,0,56.15,37.43,56.15,56.15s-36.58,56.15-56.15,56.15ZM2849.74,620.75V235.39h102.08v385.36h-102.08Z"/>
  <path class="cls-2" d="M2808.91,110.33c-15.31-5.96-34.03-10.21-49.34-10.21-53.59,0-80.82,34.03-80.82,94.43v40.83h115.69l-19.57,85.07h-96.13v300.29h-101.23v-300.29h-62.1v-85.07h62.1v-49.34c0-113.14,68.91-170.99,171.84-170.99,32.33,0,58.7,5.1,79.11,12.76l-19.57,82.52ZM2900.78,197.1c-17.87,0-56.15-37.43-56.15-56.15s38.28-56.15,56.15-56.15c19.57,0,56.15,37.43,56.15,56.15s-36.58,56.15-56.15,56.15ZM2849.74,620.75V235.39h102.08v385.36h-102.08Z"/>
  <g>
    <path class="cls-3" d="M2808.91,110.33c-15.31-5.96-34.03-10.21-49.34-10.21-53.59,0-80.82,34.03-80.82,94.43v40.83h115.69l-19.57,85.07h-96.13v300.29h-101.23v-300.29h-62.1v-85.07h62.1v-49.34c0-113.14,68.91-170.99,171.84-170.99,32.33,0,58.7,5.1,79.11,12.76l-19.57,82.52ZM2900.78,197.1c-17.87,0-56.15-37.43-56.15-56.15s38.28-56.15,56.15-56.15c19.57,0,56.15,37.43,56.15,56.15s-36.58,56.15-56.15,56.15ZM2849.74,620.75V235.39h102.08v385.36h-102.08Z"/>
    <path class="cls-4" d="M2952.32,621.25h-103.08V234.89h103.08v386.36ZM2850.24,620.25h101.08V235.89h-101.08v384.36ZM2679.25,621.25h-102.23v-300.29h-62.1v-86.07h62.1v-48.84c0-55.18,15.97-98.34,47.47-128.29,29.74-28.26,72.91-43.2,124.87-43.2,29.98,0,56.65,4.3,79.29,12.79l.41.15-19.8,83.5-.54-.21c-16.38-6.37-34.76-10.17-49.16-10.17-26.29,0-46.51,8.2-60.12,24.39-13.4,15.93-20.19,39.33-20.19,69.54v40.33h115.82l-19.8,86.07h-96.03v300.29ZM2578.02,620.25h100.23v-300.29h96.23l19.34-84.07h-115.57v-41.33c0-30.46,6.87-54.07,20.43-70.18,13.81-16.42,34.29-24.74,60.89-24.74,14.36,0,32.63,3.75,48.99,10.04l19.33-81.53c-22.43-8.35-48.85-12.58-78.53-12.58-51.69,0-94.63,14.84-124.18,42.93-31.3,29.75-47.16,72.67-47.16,127.56v49.84h-62.1v84.07h62.1v300.29ZM2900.78,197.6c-18.53,0-56.65-38.12-56.65-56.65s38.12-56.65,56.65-56.65c10.88,0,25.61,10.95,35.77,21.2,12.68,12.8,20.88,26.71,20.88,35.44s-8.2,22.64-20.88,35.44c-10.16,10.25-24.89,21.2-35.77,21.2ZM2900.78,85.31c-8.09,0-21.6,8.21-34.42,20.91-13.09,12.97-21.23,26.28-21.23,34.74s8.13,21.76,21.23,34.74c12.82,12.7,26.33,20.91,34.42,20.91,18.72,0,55.65-36.92,55.65-55.65s-36.92-55.65-55.65-55.65Z"/>
  </g>
  <path class="cls-2" d="M3288.69,320.46h-119.1v166.74c0,39.98,20.42,54.44,57.85,54.44,11.91,0,22.12-1.7,33.18-5.1l-8.51,80.82c-11.06,5.1-29.77,8.51-50.19,8.51-78.26,0-132.71-43.39-132.71-119.1v-186.3h-62.1v-85.07h62.1v-79.97l100.38-43.39v123.35h137.81l-18.72,85.07Z"/>
  <path class="cls-2" d="M3288.69,320.46h-119.1v166.74c0,39.98,20.42,54.44,57.85,54.44,11.91,0,22.12-1.7,33.18-5.1l-8.51,80.82c-11.06,5.1-29.77,8.51-50.19,8.51-78.26,0-132.71-43.39-132.71-119.1v-186.3h-62.1v-85.07h62.1v-79.97l100.38-43.39v123.35h137.81l-18.72,85.07Z"/>
  <g>
    <path class="cls-3" d="M3288.69,320.46h-119.1v166.74c0,39.98,20.42,54.44,57.85,54.44,11.91,0,22.12-1.7,33.18-5.1l-8.51,80.82c-11.06,5.1-29.77,8.51-50.19,8.51-78.26,0-132.71-43.39-132.71-119.1v-186.3h-62.1v-85.07h62.1v-79.97l100.38-43.39v123.35h137.81l-18.72,85.07Z"/>
    <path class="cls-4" d="M3201.91,626.35c-39.25,0-72.46-10.82-96.03-31.28-24.32-21.12-37.18-51.66-37.18-88.32v-185.8h-62.1v-86.07h62.1v-79.79l.3-.13,101.08-43.69v123.61h137.93l-18.93,86.07h-119v166.24c0,37.31,17.69,53.94,57.35,53.94,11.42,0,21.6-1.57,33.03-5.08l.72-.22-8.62,81.85-.26.12c-11.6,5.36-30.45,8.55-50.4,8.55ZM3007.6,319.96h62.1v186.8c0,36.36,12.74,66.64,36.83,87.56,23.39,20.3,56.37,31.03,95.38,31.03,19.38,0,38.38-3.19,49.72-8.34l8.4-79.78c-11.23,3.39-21.32,4.91-32.6,4.91-40.35,0-58.35-16.95-58.35-54.94v-167.24h119.19l18.5-84.07h-137.69v-123.09l-99.38,42.95v80.14h-62.1v84.07Z"/>
  </g>
  <polyline class="cls-4" points="497.42 409.98 503.5 414.13 503.17 410.98 497.42 409.98"/>
  <path class="cls-3" d="M151.44,594.82c.58-1.09,1.62-.86,2.56-.86,8.71.02,17.42.05,26.13.08-.08.25-.11.51-.1.77h-28.59Z"/>
  <path class="cls-4" d="M549.76,634.26c-6.6-.17-13.19-.4-19.79-.48-2.76-.03-4.59-.98-6.1-3.14-29.32-41.89-58.7-83.75-88.08-125.61-10-14.25-20.02-28.49-30.03-42.74-3.09-4.4-3.12-5.42,1.38-8.68,14.28-10.35,26.38-22.44,36.5-36.22,2.73-3.72,4.68-3.91,8.72-1.3,57.15,36.91,114.29,73.83,171.47,110.7,2.52,1.62,3.68,3.44,3.59,6.3-.53,16.46-.71,32.92-1.37,49.37-1.23,30.93-28.06,53.32-62.22,52.19-4.69-.15-9.38-.24-14.07-.36,0-.01,0-.02,0-.03Z"/>
  <path class="cls-4" d="M630.51,73.13c0,6.3-.06,12.59.03,18.89.04,2.63-.91,4.4-3.15,5.9-43.39,28.99-86.74,58.03-130.1,87.07-14.76,9.89-29.51,19.79-44.26,29.68-4.56,3.06-5.63,3.11-9.19-1.1-11.3-13.37-24.38-24.61-39.19-33.93-4-2.52-4.25-4.37-1.61-8.28,37.38-55.41,74.79-110.81,112.13-166.25,1.65-2.44,3.53-3.6,6.55-3.58,17.37.1,34.74-.12,52.11.1,32.65.42,56.99,25.47,56.72,58.08-.04,4.48,0,8.95,0,13.43-.01,0-.02,0-.03,0Z"/>
  <path class="cls-4" d="M497.05,299.23s17.36.18,26.04.18c32.5-.02,64.99-.08,97.49-.14,6.19-.01,6.86-.73,6.85-6.64-.03-43.92-.04-87.85-.06-131.77,0-6.85-.03-13.71.02-20.56.02-2.18-.01-4.39-2.15-5.51-2.05-1.08-3.99-.21-5.85,1.05-27.4,18.43-54.83,36.79-82.23,55.21-12.29,8.26-62.89,42.16-72.78,48.88-3.25,2.21-1.69,5.24-.45,7.9,4.98,10.66,8.32,21.84,10.92,33.28,1.23,5.41,1.1,11.07,3.05,16.34,1.45,1.51,5,1.96,5,1.96l14.15-.18Z"/>
  <path class="cls-4" d="M500.18,330.85c8.68-.06,17.36-.18,26.04-.18,32.5.02,64.99.08,97.49.14,6.19.01,6.86.73,6.85,6.64-.03,43.92-.04,87.85-.06,131.77,0,6.85-.03,13.71.02,20.56.02,2.18-.01,4.39-2.15,5.51-2.05,1.08-3.99.21-5.85-1.05-27.4-18.43-54.83-36.79-82.23-55.21-12.29-8.26-24.53-16.6-36.79-24.91-.87-3.08-3.43-3.68-6.08-4.14-9.98-6.6-20.01-13.11-29.91-19.83-3.25-2.21-1.69-5.24-.45-7.9,4.98-10.66,8.32-21.84,10.92-33.28,1.23-5.41,1.1-11.07,3.05-16.34,1.45-1.51,3.15-1.28,4.99-.91,4.79.97,9.52.71,14.16-.88Z"/>
  <path class="cls-3" d="M192.18,44.32c0,11.76.02,23.52,0,35.27-.01,5.92-1.25,7.19-7.09,7.2-22.98.02-45.97.02-68.95,0-5.4,0-6.76-1.32-6.77-6.65-.03-23.93-.03-47.87,0-71.8,0-5.37,1.37-6.75,6.66-6.75,23.12-.02,46.25-.02,69.37,0,5.51,0,6.77,1.32,6.78,7.05.02,11.9,0,23.79,0,35.69Z"/>
  <path class="cls-3" d="M109.36,483.08c0-11.75-.02-23.51.01-35.26.01-5.69,1.28-6.96,6.85-6.97,23.12-.01,46.24-.02,69.35,0,5.11,0,6.58,1.37,6.58,6.38.04,23.93.04,47.86,0,71.79,0,4.97-1.56,6.46-6.63,6.47-23.12.03-46.24.03-69.35,0-5.3,0-6.79-1.49-6.8-6.73-.04-11.89-.01-23.79-.01-35.68Z"/>
  <path class="cls-3" d="M220.13,44.14c0-12.03-.02-24.06,0-36.08,0-5.13,1.31-6.48,6.42-6.48,22.83-.02,45.65-.03,68.48,0,5.02,0,6.42,1.41,6.43,6.54.03,24.06.03,48.11,0,72.17,0,5.09-1.42,6.49-6.48,6.5-22.83.03-45.65.03-68.48,0-5.11,0-6.34-1.33-6.35-6.55-.02-12.03,0-24.06,0-36.08Z"/>
  <path class="cls-3" d="M81.4,483.36c0,11.74.01,23.49,0,35.23,0,5.54-1.32,6.89-6.96,6.9-22.54.03-45.08.03-67.62,0-5.3,0-6.74-1.46-6.75-6.77-.03-23.77-.03-47.54,0-71.31,0-5.3,1.39-6.56,6.81-6.56,22.54-.01,45.08-.01,67.62,0,5.68,0,6.87,1.2,6.88,6.86.02,11.88,0,23.77,0,35.65Z"/>
  <path class="cls-3" d="M81.4,371.67c0,11.47.02,22.95,0,34.42-.01,5.37-1.25,6.64-6.72,6.65-22.55.03-45.11.03-67.66,0-5.62,0-6.93-1.31-6.93-6.93-.03-22.81-.03-45.61,0-68.42,0-5.55,1.37-6.9,7.01-6.91,22.41-.03,44.83-.03,67.24,0,5.93,0,7.06,1.2,7.06,7.19.01,11.33,0,22.67,0,34Z"/>
  <path class="cls-3" d="M150.81,195.51c-11.34,0-22.68.02-34.02,0-5.32-.01-6.66-1.32-6.67-6.72-.03-22.51-.03-45.02,0-67.54,0-5.61,1.41-7.05,6.9-7.06,22.54-.02,45.08-.02,67.62,0,5.51,0,6.81,1.41,6.81,7.05,0,22.37,0,44.74,0,67.12,0,6.04-1.08,7.13-7.02,7.14-11.2.01-22.4,0-33.6,0Z"/>
  <path class="cls-3" d="M40.74,195.51c-11.34,0-22.68.02-34.02,0-5.32-.01-6.66-1.32-6.67-6.72-.03-22.51-.03-45.02,0-67.54,0-5.61,1.41-7.05,6.9-7.06,22.54-.02,45.08-.02,67.62,0,5.51,0,6.81,1.41,6.81,7.05,0,22.37,0,44.74,0,67.12,0,6.04-1.08,7.13-7.02,7.14-11.2.01-22.4,0-33.6,0Z"/>
  <path class="cls-3" d="M40.77,302.46c-11.34,0-22.68.02-34.02,0-5.32-.01-6.66-1.32-6.67-6.72-.03-22.51-.03-45.02,0-67.54,0-5.61,1.41-7.05,6.9-7.06,22.54-.02,45.08-.02,67.62,0,5.51,0,6.81,1.41,6.81,7.05,0,22.37,0,44.74,0,67.12,0,6.04-1.08,7.13-7.02,7.14-11.2.01-22.4,0-33.6,0Z"/>
  <path class="cls-3" d="M299.15,630.83c-25.58,0-51.15.02-76.73.02-2.66-.88-3.01-3.12-3.01-5.41-.03-21.97-.05-43.94.02-65.91.01-4.6,1.55-6.05,6.09-6.06,23.54-.03,47.08-.03,70.62,0,4.52,0,6.04,1.46,6.05,6.08.06,21.97.04,43.94,0,65.91,0,2.28-.32,4.54-3.04,5.36Z"/>
  <path class="cls-3" d="M189.11,630.83c-25.58,0-51.15.02-76.73.02-2.66-.88-3.01-3.12-3.01-5.41-.03-21.97-.05-43.94.02-65.91.01-4.6,1.55-6.05,6.09-6.06,23.54-.03,47.08-.03,70.62,0,4.52,0,6.04,1.46,6.05,6.08.06,21.97.04,43.94,0,65.91,0,2.28-.32,4.54-3.04,5.36Z"/>
  <path class="cls-3" d="M43.05,553.55c11.9.02,23.79.03,35.69.07,5.37.02,6.62,1.2,6.62,6.39-.01,21.4-.05,42.8-.11,64.2-.01,5.33-1.3,6.6-6.93,6.54-10.07-.11-20.15.39-30.21-.37-26.56-2.02-47.17-22.6-47.9-47.96-.22-7.7-.1-15.42-.05-23.13.03-4.52,1.45-5.78,6.38-5.78,12.18,0,24.35.03,36.53.05Z"/>
  <path class="cls-3" d="M81.4,44.47c0,11.9.01,23.79,0,35.69,0,5.37-1.26,6.62-6.72,6.63-22.56.02-45.12.02-67.68,0-5.62,0-6.96-1.29-6.9-6.92.1-10.07-.45-20.15.34-30.21C2.51,23.09,24.17,2.45,50.91,1.67c8.12-.24,16.25-.12,24.38-.09,4.76.02,6.1,1.44,6.11,6.37.03,12.18,0,24.35,0,36.53Z"/>
  <path class="cls-3" d="M109.35,371.25c0-11.2-.02-22.4,0-33.59.01-5.85,1.3-7.16,7.18-7.17,12.47-.03,24.95-.03,37.42,0,5.45.01,6.57,1.07,7.26,6.46,2.97,23.36,10.78,44.99,23.32,64.92.67,1.06,1.38,2.11,1.98,3.21,2.34,4.38.66,7.6-4.32,7.62-22.42.1-44.85.09-67.27.02-4.25-.01-5.54-1.69-5.56-6.6-.04-11.62-.01-23.24-.01-34.85Z"/>
  <path class="cls-3" d="M260.72,525.5c-11.2,0-22.41.02-33.61-.01-5.66-.02-6.97-1.33-6.97-6.88-.01-21.68,0-43.36,0-65.04,0-2.51-.3-5.21,2.42-6.67,2.69-1.44,4.82.21,6.89,1.63,19.9,13.65,41.72,22.48,65.59,26.25,5.62.89,6.42,2.01,6.43,7.79.01,11.75.01,23.5,0,35.25,0,6.44-1.21,7.67-7.55,7.68-11.06.02-22.13,0-33.19,0Z"/>
  <path class="cls-3" d="M109.35,261.66c0-11.18-.03-22.37.01-33.55.02-5.54,1.45-6.96,6.98-6.97,21.13-.02,42.27,0,63.4,0,2.4,0,4.94-.13,6.38,2.25,1.55,2.56.16,4.79-1.22,6.96-12.89,20.36-20.87,42.48-23.75,66.41-.48,3.98-2.34,5.83-6.6,5.77-12.73-.18-25.47-.05-38.21-.07-5.76,0-6.98-1.28-6.99-7.25-.02-11.18,0-22.37,0-33.55Z"/>
  <path class="cls-3" d="M260.76,114.92c11.34,0,22.68-.02,34.01,0,5.32.01,6.65,1.33,6.67,6.72.04,9.79.04,19.57,0,29.36-.02,4.95-1.07,6.18-5.88,6.95-23.82,3.81-45.71,12.46-65.64,26.05-.92.63-1.83,1.3-2.83,1.79-3.6,1.74-6.84.18-6.87-3.77-.15-20.83-.12-41.66-.04-62.49.01-3.54,2.49-4.63,5.72-4.62,11.62.03,23.23.01,34.85.01Z"/>
  <path class="cls-4" d="M500.18,330.85c-4.07,2.97-8.57,3.24-13.23,1.92-2.01-.57-3.92-1.18-5.93-.13.71-1.76,2.24-1.86,3.8-1.86,5.12,0,10.24.05,15.35.07Z"/>
  <path class="cls-4" d="M325.98,626.31v-146.24c-.12,0,.46-3.59,4.86-4.05,4.4-.46,24.07-2.3,39.13-8.42,0,0,4.64-2.95,7.67,4.1l98.06,145.66,4.81,7.37s2.28,3.07-1.29,5.28l-1.18.71s-.91.22-5.37-.01l-63.1,1.02h-81.37c-1.8,0-2.35-2.07-2.21-5.42Z"/>
  <path class="cls-4" d="M325.83,6.56l.04,146.25c-.12,0,.46,3.59,4.86,4.05,4.4.45,24.07,2.29,39.13,8.41,0,0,4.64,2.95,7.67-4.1L475.57,15.47l4.81-7.37s2.28-3.07-1.29-5.29l-1.18-.71s-.91-.22-5.37.01l-63.11-1s-79.57.02-81.37.02-2.35,2.07-2.21,5.42Z"/>
</svg>